<?xml version="1.0" standalone="no"?>
<!DOCTYPE svg PUBLIC "-//W3C//DTD SVG 20010904//EN"
 "http://www.w3.org/TR/2001/REC-SVG-20010904/DTD/svg10.dtd">
<svg version="1.0" xmlns="http://www.w3.org/2000/svg"
 width="355.000000pt" height="355.000000pt" viewBox="0 0 355.000000 355.000000"
 preserveAspectRatio="xMidYMid meet">
<metadata>
Created by potrace 1.14, written by Peter Selinger 2001-2017
</metadata>
<g transform="translate(0.000000,355.000000) scale(0.100000,-0.100000)"
fill="#000000" stroke="none">
<path d="M2810 3480 c-51 -15 -110 -53 -145 -91 -37 -41 -98 -131 -115 -171
-6 -13 -19 -36 -30 -53 -11 -16 -23 -37 -27 -45 -3 -8 -21 -37 -38 -65 -32
-49 -181 -300 -216 -362 -10 -17 -29 -50 -43 -72 -15 -22 -26 -43 -26 -45 0
-3 -13 -24 -29 -48 -16 -24 -41 -65 -55 -93 -15 -27 -35 -62 -44 -76 -9 -15
-41 -69 -71 -120 -30 -52 -78 -132 -106 -179 -67 -110 -197 -329 -211 -355
-13 -25 -131 -224 -144 -245 -6 -8 -14 -24 -20 -35 -5 -11 -17 -30 -27 -42
l-18 -23 -41 38 c-147 135 -359 229 -569 253 -129 14 -206 7 -375 -36 -8 -2
-51 -22 -96 -44 -96 -50 -231 -178 -281 -268 -64 -115 -78 -174 -78 -323 0
-115 4 -146 24 -210 13 -41 27 -82 31 -90 59 -121 101 -185 169 -263 208 -237
529 -374 826 -352 242 17 421 113 560 300 25 33 53 76 63 95 10 19 30 54 45
77 15 24 27 44 27 46 0 2 36 64 80 137 44 73 80 134 80 136 0 1 23 40 50 86
66 108 61 99 122 203 29 49 55 94 57 100 2 5 16 28 31 50 14 22 57 94 95 159
l69 120 14 -34 c23 -58 42 -177 42 -268 0 -77 -4 -106 -25 -199 -3 -13 -22
-29 -48 -42 -48 -23 -102 -77 -137 -135 -18 -30 -25 -59 -28 -123 -6 -114 13
-172 80 -241 62 -65 81 -78 144 -97 104 -32 182 -16 351 71 150 77 167 88 258
159 285 223 479 507 543 795 24 110 23 401 -2 490 -10 36 -19 70 -21 75 -1 6
-4 17 -7 25 -3 8 -16 43 -28 78 -19 57 -41 107 -126 288 -13 28 -31 73 -40
100 -9 27 -24 67 -34 89 -38 85 -46 115 -64 260 -11 80 -12 122 -4 155 5 25
12 84 15 131 4 79 3 92 -22 145 -32 68 -115 146 -185 175 -47 19 -154 24 -200
9z"/>
</g>
</svg>
